<svg width="99" height="36" viewBox="0 0 99 36" fill="none" xmlns="http://www.w3.org/2000/svg">
<path d="M74.5312 35.2C74.5312 33.0133 74.5713 30.6666 74.6513 28.16C74.7313 25.6533 74.8379 23.1066 74.9713 20.52C75.1046 17.9333 75.2379 15.4 75.3713 12.92C75.5313 10.44 75.6912 8.10665 75.8512 5.91998C76.0112 3.70664 76.1446 1.74664 76.2513 0.039978L82.9313 0.119977C82.7713 1.63998 82.6113 3.34664 82.4513 5.23998C82.3179 7.13331 82.1846 9.14665 82.0513 11.28C82.8246 10.96 83.6513 10.72 84.5312 10.56C85.4379 10.3733 86.4113 10.28 87.4513 10.28C88.8646 10.28 90.2112 10.52 91.4912 11C92.7979 11.4533 93.9713 12.16 95.0113 13.12C96.0513 14.08 96.8646 15.32 97.4513 16.84C98.0646 18.36 98.3713 20.1866 98.3713 22.32C98.3713 24.5866 98.0513 26.5466 97.4113 28.2C96.7713 29.8533 95.9046 31.2133 94.8112 32.28C93.7179 33.3466 92.4779 34.1333 91.0913 34.64C89.7313 35.1733 88.3313 35.44 86.8913 35.44C85.7979 35.44 84.7712 35.2933 83.8112 35C82.8779 34.7066 82.0113 34.32 81.2113 33.84C81.2113 34.2666 81.2113 34.6933 81.2113 35.12L74.5312 35.2ZM86.5312 17C84.5312 17 82.9046 17.5866 81.6513 18.76C81.5446 21.2133 81.4513 23.6133 81.3713 25.96C82.6779 27.6933 84.5046 28.56 86.8512 28.56C87.6246 28.56 88.3979 28.3866 89.1712 28.04C89.9712 27.6666 90.6379 27.04 91.1712 26.16C91.7046 25.28 91.9713 24.0533 91.9713 22.48C91.9713 20.6933 91.5046 19.3333 90.5713 18.4C89.6646 17.4666 88.3179 17 86.5312 17Z" fill="#D4694A"/>
<path d="M55.0706 35.48C53.0706 35.48 51.2573 34.96 49.6306 33.92C48.0039 32.9067 46.7106 31.5334 45.7506 29.8C44.8173 28.04 44.3506 26.08 44.3506 23.92C44.3506 21.8934 44.7239 20.0667 45.4706 18.44C46.2173 16.7867 47.2306 15.3734 48.5106 14.2C49.8173 13.0267 51.2973 12.1334 52.9506 11.52C54.6039 10.88 56.3373 10.56 58.1506 10.56C59.6706 10.56 61.1639 10.7734 62.6306 11.2C62.7373 10.64 62.8306 10.08 62.9106 9.52002L69.7506 10.68C69.5639 11.1867 69.3772 11.9467 69.1906 12.96C69.0039 13.9734 68.8439 15.1067 68.7106 16.36C68.6039 17.6134 68.5106 18.8667 68.4306 20.12C68.3506 21.3734 68.3106 22.5067 68.3106 23.52C68.3106 24.3467 68.3639 25.16 68.4706 25.96C68.6039 26.7334 68.8706 27.3734 69.2706 27.88C69.6706 28.36 70.2839 28.6 71.1106 28.6H71.6706L70.6706 35.56C68.9106 35.56 67.4573 35.2534 66.3106 34.64C65.1639 34.0534 64.2439 33.2534 63.5506 32.24C62.4039 33.52 61.0973 34.3734 59.6306 34.8C58.1639 35.2534 56.6439 35.48 55.0706 35.48ZM50.9106 24.72C51.0439 26 51.5639 27.0267 52.4706 27.8C53.4039 28.5467 54.5773 28.92 55.9906 28.92C57.3506 28.92 58.4839 28.56 59.3906 27.84C60.2972 27.0934 61.0439 26.08 61.6306 24.8C61.6039 24.3734 61.5906 23.9334 61.5906 23.48C61.5906 22.5467 61.6173 21.5867 61.6706 20.6C61.7239 19.6134 61.7906 18.64 61.8706 17.68C60.7506 17.2534 59.5773 17.04 58.3506 17.04C56.9106 17.04 55.6173 17.3334 54.4706 17.92C53.3506 18.48 52.4706 19.2667 51.8306 20.28C51.1906 21.2934 50.8706 22.4667 50.8706 23.8C50.8706 23.96 50.8706 24.12 50.8706 24.28C50.8706 24.44 50.8839 24.5867 50.9106 24.72Z" fill="#D4694A"/>
<path d="M34.3541 35.48C32.8874 35.48 31.6741 35.16 30.7141 34.52C29.7808 33.9067 29.0341 33.0533 28.4741 31.96C27.9408 30.8667 27.5408 29.6133 27.2741 28.2C27.0341 26.7867 26.8741 25.28 26.7941 23.68C26.7408 22.0533 26.7141 20.4267 26.7141 18.8C26.7141 17.3867 26.7541 15.84 26.8341 14.16C26.9141 12.4533 27.0074 10.7333 27.1141 9C27.2474 7.24 27.3808 5.58667 27.5141 4.04C27.6741 2.49333 27.8208 1.14667 27.9541 0L35.1941 0.0799999C34.9808 1.44 34.7808 2.98667 34.5941 4.72C34.4074 6.42667 34.2474 8.16 34.1141 9.92C34.0074 11.68 33.9141 13.3067 33.8341 14.8C33.7808 16.2933 33.7541 17.48 33.7541 18.36C33.7541 20.7867 33.7941 22.6933 33.8741 24.08C33.9808 25.4667 34.1274 26.4533 34.3141 27.04C34.5274 27.6 34.8074 27.88 35.1541 27.88C35.6074 27.88 36.1008 27.6 36.6341 27.04C37.1674 26.4533 37.6874 25.8 38.1941 25.08L41.5941 31.84C40.7674 32.7467 39.7808 33.5733 38.6341 34.32C37.4874 35.0933 36.0608 35.48 34.3541 35.48Z" fill="#D4694A"/>
<path d="M0 35.2C0 33.0133 0.0399999 30.6666 0.12 28.16C0.2 25.6533 0.306667 23.1066 0.44 20.52C0.573333 17.9333 0.706667 15.4 0.84 12.92C1 10.44 1.16 8.10665 1.32 5.91998C1.48 3.70664 1.61333 1.74664 1.72 0.039978L8.4 0.119977C8.24 1.63998 8.08 3.34664 7.92 5.23998C7.78667 7.13331 7.65333 9.14665 7.52 11.28C8.29333 10.96 9.12 10.72 10 10.56C10.9067 10.3733 11.88 10.28 12.92 10.28C14.3333 10.28 15.68 10.52 16.96 11C18.2667 11.4533 19.44 12.16 20.48 13.12C21.52 14.08 22.3333 15.32 22.92 16.84C23.5333 18.36 23.84 20.1866 23.84 22.32C23.84 24.5866 23.52 26.5466 22.88 28.2C22.24 29.8533 21.3733 31.2133 20.28 32.28C19.1867 33.3466 17.9467 34.1333 16.56 34.64C15.2 35.1733 13.8 35.44 12.36 35.44C11.2667 35.44 10.24 35.2933 9.28 35C8.34667 34.7066 7.48 34.32 6.68 33.84C6.68 34.2666 6.68 34.6933 6.68 35.12L0 35.2ZM12 17C10 17 8.37333 17.5866 7.12 18.76C7.01333 21.2133 6.92 23.6133 6.84 25.96C8.14667 27.6933 9.97333 28.56 12.32 28.56C13.0933 28.56 13.8667 28.3866 14.64 28.04C15.44 27.6666 16.1067 27.04 16.64 26.16C17.1733 25.28 17.44 24.0533 17.44 22.48C17.44 20.6933 16.9733 19.3333 16.04 18.4C15.1333 17.4666 13.7867 17 12 17Z" fill="#D4694A"/>
</svg>
