<svg width="20" height="20" viewBox="0 0 20 20" fill="none" xmlns="http://www.w3.org/2000/svg">
<path fill-rule="evenodd" clip-rule="evenodd" d="M9.99984 2.2915C5.74264 2.2915 2.2915 5.74264 2.2915 9.99984C2.2915 11.4049 2.66686 12.7204 3.32236 13.8535C3.39705 13.9827 3.4231 14.1343 3.3958 14.2809L2.86435 17.1353L5.71877 16.6039C5.86542 16.5766 6.017 16.6026 6.14612 16.6773C7.27928 17.3328 8.59478 17.7082 9.99984 17.7082C14.257 17.7082 17.7082 14.257 17.7082 9.99984C17.7082 5.74264 14.257 2.2915 9.99984 2.2915ZM1.0415 9.99984C1.0415 5.05229 5.05229 1.0415 9.99984 1.0415C14.9474 1.0415 18.9582 5.05229 18.9582 9.99984C18.9582 14.9474 14.9474 18.9582 9.99984 18.9582C8.45291 18.9582 6.99597 18.5656 5.72497 17.8742L2.19757 18.5309C1.99503 18.5687 1.78691 18.5041 1.64123 18.3584C1.49555 18.2128 1.43102 18.0046 1.46873 17.8021L2.12547 14.2747C1.43411 13.0037 1.0415 11.5468 1.0415 9.99984Z" fill="black"/>
</svg>
