<svg width="16" height="16" viewBox="0 0 16 16" fill="none" xmlns="http://www.w3.org/2000/svg">
<path fill-rule="evenodd" clip-rule="evenodd" d="M11.313 4.64645C11.5082 4.45118 11.8248 4.45118 12.0201 4.64645L11.6665 5C12.0201 4.64645 12.0202 4.64659 12.0204 4.64675L12.0207 4.64707L12.0214 4.64779L12.0231 4.64951L12.0276 4.65409L12.0407 4.66777C12.0512 4.67888 12.0653 4.69401 12.0823 4.71306C12.1163 4.75114 12.1624 4.80504 12.2165 4.87414C12.3245 5.01211 12.4654 5.21207 12.6055 5.46891C12.8856 5.98243 13.1665 6.73109 13.1665 7.66667C13.1665 8.60225 12.8856 9.35091 12.6055 9.86443C12.4654 10.1213 12.3245 10.3212 12.2165 10.4592C12.1624 10.5283 12.1163 10.5822 12.0823 10.6203C12.0653 10.6393 12.0512 10.6544 12.0407 10.6656L12.0276 10.6792L12.0231 10.6838L12.0214 10.6855L12.0207 10.6863L12.0204 10.6866C12.0202 10.6867 12.0201 10.6869 11.6803 10.3471L12.0201 10.6869C11.8248 10.8821 11.5082 10.8821 11.313 10.6869C11.1183 10.4922 11.1177 10.1769 11.3112 9.98151C11.3118 9.98093 11.3124 9.98035 11.313 9.97978L11.6665 10.3333C11.313 9.97978 11.3128 9.97992 11.3127 9.98006L11.3124 9.98031L11.312 9.98076L11.3114 9.98138L11.3148 9.97782C11.3189 9.97348 11.3263 9.96549 11.3366 9.95394C11.3573 9.93082 11.3893 9.89358 11.429 9.84289C11.5085 9.74128 11.6177 9.58707 11.7276 9.38557C11.9475 8.98243 12.1665 8.39775 12.1665 7.66667C12.1665 6.93558 11.9475 6.35091 11.7276 5.94776C11.6177 5.74627 11.5085 5.59206 11.429 5.49045C11.3893 5.43975 11.3573 5.40251 11.3366 5.37939C11.3263 5.36784 11.3189 5.35985 11.3148 5.35551L11.3112 5.35182C11.1177 5.15643 11.1183 4.84113 11.313 4.64645Z" fill="black"/>
</svg>
